# xmcd CD database file
#
# Track frame offsets:
#	150
#	23285
#	46862
#	72815
#	103997
#	122240
#	150662
#	170387
#	188927
#	232547
#	251302
#	278592
#	300932
#
# Disc length: 4425 seconds
#
# Revision: 7
# Processed by: cddbd v1.5.2PL0 Copyright (c) Steve Scherf et al.
# Submitted via: CDex 2.14
#
DISCID=9211470d
DTITLE=Fish - Yin
DYEAR=1995
DGENRE=Blues
TTITLE0=Incommunicado
TTITLE1=Family Business
TTITLE2=Just Good Friends
TTITLE3=Pipeline
TTITLE4=Institution Waltz
TTITLE5=Tongues
TTITLE6=Time and A Word
TTITLE7=Company
TTITLE8=Incubus
TTITLE9=Solo
TTITLE10=Favourite Stranger
TTITLE11=Boston Tea Party
TTITLE12=Raw Meat
EXTD=YEAR: 1995
EXTT0=
EXTT1=
EXTT2=
EXTT3=
EXTT4=
EXTT5=
EXTT6=
EXTT7=
EXTT8=
EXTT9=
EXTT10=
EXTT11=
EXTT12=
PLAYORDER=
